<?xml version="1.0" encoding="UTF-8" standalone="no"?>
<!-- Created with Sodipodi ("http://www.sodipodi.com/") -->

<svg
   xmlns:dc="http://purl.org/dc/elements/1.1/"
   xmlns:cc="http://creativecommons.org/ns#"
   xmlns:rdf="http://www.w3.org/1999/02/22-rdf-syntax-ns#"
   xmlns:svg="http://www.w3.org/2000/svg"
   xmlns="http://www.w3.org/2000/svg"
   xmlns:xlink="http://www.w3.org/1999/xlink"
   xmlns:sodipodi="http://sodipodi.sourceforge.net/DTD/sodipodi-0.dtd"
   xmlns:inkscape="http://www.inkscape.org/namespaces/inkscape"
   xml:space="preserve"
   width="128pt"
   height="128pt"
   viewBox="0 0 507.946 507.946"
   id="svg49"
   sodipodi:version="0.27"
   sodipodi:docname="vert_zoom_to_rect.svg"
   version="1.1"
   inkscape:version="0.91 r"
   inkscape:export-filename="/home/olsonse/src/arbwave-project/arbwave/python/arbwave/gui/plotter/icons/vert_zoom_to_rect.png"
   inkscape:export-xdpi="13.5"
   inkscape:export-ydpi="13.5"><metadata
     id="metadata37"><rdf:RDF><cc:Work
         rdf:about=""><dc:format>image/svg+xml</dc:format><dc:type
           rdf:resource="http://purl.org/dc/dcmitype/StillImage" /></cc:Work></rdf:RDF></metadata><defs
     id="defs62"><radialGradient
       id="radialGradient466"
       cx="218.9404"
       cy="219.7715"
       r="150.7063"
       fx="218.9404"
       fy="219.7715"
       gradientUnits="userSpaceOnUse"
       style="stroke:#000000;stroke-opacity:0.986014;stroke-width:0.981612;"><stop
         offset="0.000000"
         style="stop-color:#c7edf7;stop-opacity:1;"
         id="stop467" /><stop
         offset="1.000000"
         style="stop-color:#3e9ea6;stop-opacity:1;"
         id="stop468" /></radialGradient><radialGradient
       id="radialGradient351"
       cx="218.9404"
       cy="219.7715"
       r="150.7063"
       fx="218.9404"
       fy="219.7715"
       gradientUnits="userSpaceOnUse"
       style="stroke:#000000;stroke-opacity:0.986014;stroke-width:0.981612;"><stop
         offset="0.000000"
         style="stop-color:#fbddb2;stop-opacity:1;"
         id="stop352" /><stop
         offset="1.000000"
         style="stop-color:#efa81a;stop-opacity:1;"
         id="stop353" /></radialGradient><radialGradient
       id="radialGradient194"
       cx="218.9404"
       cy="219.7715"
       r="150.7063"
       fx="218.9404"
       fy="219.7715"
       gradientUnits="userSpaceOnUse"
       style="stroke:#000000;stroke-opacity:0.986014;stroke-width:0.981612;"><stop
         offset="0.000000"
         style="stop-color:#c7edf7;stop-opacity:0.431373;"
         id="stop195" /><stop
         offset="1.000000"
         style="stop-color:#3e9ea6;stop-opacity:0.435294;"
         id="stop196" /></radialGradient><radialGradient
       id="radialGradient189"
       cx="218.9404"
       cy="219.7715"
       r="150.7063"
       fx="218.9404"
       fy="219.7715"
       gradientUnits="userSpaceOnUse"
       style="stroke:#000000;stroke-opacity:0.986014;stroke-width:0.981612;"><stop
         offset="0.000000"
         style="stop-color:#3e9ea6;stop-opacity:1;"
         id="stop190" /><stop
         offset="1.000000"
         style="stop-color:#c7edf7;stop-opacity:1;"
         id="stop191" /></radialGradient><radialGradient
       id="aigrd1"
       cx="218.9404"
       cy="219.7715"
       r="150.7063"
       fx="218.9404"
       fy="219.7715"
       gradientUnits="userSpaceOnUse"
       style="stroke:#000000;stroke-opacity:0.986014;stroke-width:0.981612;"><stop
         offset="0"
         style="stop-color:#73ffff;stroke:#000000;stroke-opacity:0.986014;stroke-width:0.981612;"
         id="stop53" /><stop
         offset="0.2809"
         style="stop-color:#2EA6B9;stroke:#000000;stroke-opacity:0.986014;stroke-width:0.981612;"
         id="stop54" /><stop
         offset="1"
         style="stop-color:#006b8b;stroke:#000000;stroke-opacity:0.986014;stroke-width:0.981612;"
         id="stop55" /></radialGradient><linearGradient
       xlink:href="#radialGradient351"
       id="linearGradient88"
       x1="0.971959"
       y1="0.492186"
       x2="0.0373832"
       y2="0.507812"
       gradientUnits="objectBoundingBox"
       gradientTransform="matrix(0.999999,0,0,1,2.49454e-08,7.55061e-08)"
       spreadMethod="pad" /><radialGradient
       xlink:href="#radialGradient189"
       id="radialGradient89"
       cx="0.5"
       cy="0.5"
       fx="0.5"
       fy="0.5"
       r="0.5"
       gradientUnits="objectBoundingBox"
       gradientTransform="matrix(1,0,0,1,3.27261e-09,-5.91197e-08)"
       spreadMethod="pad" /><radialGradient
       cx="1.06812e-14"
       cy="1.07223e-14"
       r="0.666083"
       fx="1.06812e-14"
       fy="1.07223e-14"
       xlink:href="#radialGradient194"
       id="radialGradient193"
       gradientUnits="objectBoundingBox"
       gradientTransform="matrix(0.979595,0,0,1.02083,0.337068,0.292637)"
       spreadMethod="pad" /><radialGradient
       xlink:href="#radialGradient189"
       id="radialGradient197"
       cx="4.04749e-17"
       cy="3.89647e-17"
       fx="4.04749e-17"
       fy="3.89647e-17"
       r="0.496336"
       gradientUnits="objectBoundingBox"
       gradientTransform="matrix(0.974445,0,0,1.02623,0.518471,0.499208)"
       spreadMethod="pad" /></defs><sodipodi:namedview
     id="base"
     showgrid="false"
     inkscape:zoom="1.475"
     inkscape:cx="73.4286"
     inkscape:cy="79.845183"
     inkscape:window-width="1317"
     inkscape:window-height="744"
     inkscape:window-x="49"
     inkscape:window-y="24"
     inkscape:window-maximized="1"
     inkscape:current-layer="layer3"><sodipodi:guide
       orientation="horizontal"
       position="36.946373"
       id="sodipodi:guide74" /></sodipodi:namedview><g
     inkscape:groupmode="layer"
     id="layer1"
     inkscape:label="zoom"
     style="display:inline"
     sodipodi:insensitive="true"><path
       style="font-size:12px;display:inline;fill:#fefcfe;fill-opacity:0.98999999;stroke:#2ea6b9;stroke-width:14.04629993;stroke-opacity:0.98000004"
       d="m -52.1016,244.649 418.1396,-1.191 -0.271,291.645 -419.6793,-1.811 1.8107,-288.643 z"
       id="path451"
       transform="matrix(0.86094401,0,0,0.90560199,149.79,-22.773)"
       sodipodi:nodetypes="ccccc"
       inkscape:connector-curvature="0" /><path
       style="font-size:12px;display:inline;fill:#0c5d7d;fill-opacity:0.99215698;stroke:#0c5d7d;stroke-width:4.03585005;stroke-opacity:0.98999999"
       d="m -42.4604,274.763 475.8104,-0.951 1.207,29.896 -477.0174,1.772 0,-30.717 z"
       id="path455"
       transform="matrix(0.272474,0,0,0.63650701,162.57,80.3058)"
       sodipodi:nodetypes="ccccc"
       inkscape:connector-curvature="0" /><path
       style="font-size:12px;display:inline;fill:#0c5d7d;fill-opacity:0.99215698;stroke:#0c5d7d;stroke-width:4.03585005;stroke-opacity:0.98999999"
       d="m -42.4604,274.763 475.8104,-0.951 1.207,29.896 -477.0174,1.772 0,-30.717 z"
       id="path459"
       transform="matrix(0.272474,0,0,0.63650701,162.57,126.358)"
       sodipodi:nodetypes="ccccc"
       inkscape:connector-curvature="0" /><path
       style="font-size:12px;display:inline;fill:#0c5d7d;fill-opacity:0.99215698;stroke:#0c5d7d;stroke-width:4.03585005;stroke-opacity:0.98999999"
       d="m -42.4604,274.763 475.8104,-0.951 1.207,29.896 -477.0174,1.772 0,-30.717 z"
       id="path460"
       transform="matrix(0.272474,0,0,0.63650701,162.57,173.727)"
       sodipodi:nodetypes="ccccc"
       inkscape:connector-curvature="0" /><path
       style="font-size:12px;display:inline;fill:url(#linearGradient88);fill-rule:evenodd;stroke:#cf5d07;stroke-width:13.32390022;stroke-linejoin:round;stroke-opacity:0.99215698"
       d="m 387.834,258.217 0,207.503 c 0.108,8.084 3.776,13.546 11.006,14.421 17.556,0 35.112,0 52.668,0 6.448,-1.651 10.758,-6.58 10.796,-12.819 l 1.602,-209.105 -76.072,0 z"
       id="path354"
       sodipodi:nodetypes="ccccccc"
       transform="matrix(-0.49075501,-0.76707901,0.83354,-0.53327399,293.739,654.44299)"
       inkscape:connector-curvature="0" /><g
       style="display:inline"
       id="g470"
       transform="matrix(0.937405,0,0,0.937405,-352.08701,-20.4666)"><path
         style="font-size:12px;fill:none;fill-opacity:0.70196096;stroke:#a4c9ee;stroke-width:8.5134697;stroke-opacity:0.70196096"
         d="m 134.757,263.776 c 0,66.739 54.298,121.04 121.039,121.04 66.739,0 121.039,-54.301 121.039,-121.04 0,-66.741 -54.3,-121.039 -121.039,-121.039 -66.741,0 -121.039,54.298 -121.039,121.039 z"
         id="path51"
         transform="matrix(1.37201,0,0,1.3845,205.971,-47.6433)"
         inkscape:connector-curvature="0" /><path
         style="font-size:12px;fill:none;fill-opacity:0.98999999;fill-rule:evenodd;stroke:#1c6671;stroke-width:7.73106003;stroke-opacity:0.98823499"
         d="m 356.643,263.366 c 0,57.027 -46.23,103.257 -103.256,103.257 -57.027,0 -103.256,-46.229 -103.256,-103.257 0,-57.027 46.229,-103.256 103.256,-103.256 57.025,0 103.256,46.229 103.256,103.256 z"
         id="path56"
         transform="matrix(1.50179,0,0,1.50179,175.903,-78.5251)"
         inkscape:connector-curvature="0" /><path
         style="font-size:12px;fill:url(#radialGradient193);fill-rule:evenodd;stroke-width:7.73106003;stroke-opacity:0.98823499"
         d="m 356.643,263.366 c 0,57.027 -46.23,103.257 -103.256,103.257 -57.027,0 -103.256,-46.229 -103.256,-103.257 0,-57.027 46.229,-103.256 103.256,-103.256 57.025,0 103.256,46.229 103.256,103.256 z"
         id="path188"
         transform="matrix(1.36988,0,0,1.36988,211.73,-42.9858)"
         inkscape:connector-curvature="0" /><path
         style="font-size:12px;fill:none;fill-rule:evenodd;stroke:#000000;stroke-width:1pt"
         d="m 314.862,103.352 1.603,3.205"
         id="path200"
         transform="translate(363.734,123.381)"
         inkscape:connector-curvature="0" /><path
         style="font-size:12px;fill:none;fill-opacity:0.98999999;fill-rule:evenodd;stroke:url(#radialGradient89);stroke-width:7.73106003;stroke-opacity:0.98823499"
         d="m 356.643,263.366 c 0,57.027 -46.23,103.257 -103.256,103.257 -57.027,0 -103.256,-46.229 -103.256,-103.257 0,-57.027 46.229,-103.256 103.256,-103.256 57.025,0 103.256,46.229 103.256,103.256 z"
         id="path469"
         transform="matrix(1.40869,0,0,1.40869,201.098,-52.4019)"
         inkscape:connector-curvature="0" /></g></g><g
     inkscape:groupmode="layer"
     id="layer3"
     inkscape:label="vert-zoom"
     style="display:inline"><path
       style="display:inline;opacity:1;fill:#ffffff;fill-opacity:1;stroke:#f40000;stroke-width:31.30085564;stroke-miterlimit:2.61310005;stroke-dasharray:none;stroke-dashoffset:0;stroke-opacity:1"
       d="m 1.502186,161.85611 341.150584,0 m 0,231.58471 -341.150584,0"
       id="rect3365"
       inkscape:connector-curvature="0"
       sodipodi:nodetypes="cccc" /></g></svg>